<svg width="164" height="164" viewBox="0 0 164 164" fill="none" xmlns="http://www.w3.org/2000/svg">
<g clip-path="url(#clip0)">
<path d="M82 58.9375V89.6875L53.8125 74.3125L82 58.9375Z" fill="#330C66"/>
<path d="M110.188 74.3125L82 89.6875V58.9375L110.188 74.3125Z" fill="#50218A"/>
<path d="M82 99.9375V128.125L53.8125 84.5625L82 99.9375Z" fill="#50218A"/>
<path d="M82 35.875V58.9375L53.8125 74.3125L82 35.875Z" fill="#50218A"/>
<path d="M110.188 84.5625L82 128.125V99.9375L110.188 84.5625Z" fill="#8853BF"/>
<path d="M82 35.875L110.188 74.3125L82 58.9375V35.875Z" fill="#8853BF"/>
<path d="M135.813 82C135.813 92.6431 132.656 103.047 126.743 111.897C120.83 120.746 112.426 127.643 102.593 131.716C92.7602 135.789 81.9403 136.855 71.5017 134.779C61.0631 132.702 51.4747 127.577 43.9488 120.051C36.423 112.525 31.2979 102.937 29.2215 92.4983C27.1451 82.0597 28.2108 71.2398 32.2838 61.4068C36.3567 51.5739 43.254 43.1695 52.1034 37.2565C60.9528 31.3435 71.3569 28.1875 82 28.1875C96.272 28.1875 109.959 33.857 120.051 43.9488C130.143 54.0406 135.813 67.728 135.813 82ZM110.188 74.3125L82 35.875L53.8125 74.3125L82 89.6875L110.188 74.3125ZM82 128.125L110.188 84.5625L82 99.9375L53.8125 84.5625L82 128.125Z" fill="#FAAB09"/>
<path d="M82.0001 28.1876C73.0822 28.1748 64.3023 30.3892 56.4571 34.6297C52.7075 46.0815 52.9514 58.4663 57.149 69.7616L82.0001 35.8751L110.188 74.3126L82.0001 89.6876L61.1721 78.3254C66.3955 87.2715 74.0844 94.5245 83.3198 99.2175L110.188 84.5626L97.5545 104.089C109.702 106.439 122.289 104.508 133.173 98.623C135.804 90.5471 136.484 81.963 135.159 73.5736C133.833 65.1842 130.539 57.228 125.547 50.3566C120.555 43.4852 114.006 37.8939 106.437 34.0406C98.8677 30.1873 90.4936 28.1815 82.0001 28.1876Z" fill="#F6D049"/>
<path d="M54.8373 7.35436L60.9617 24.2156C54.2204 26.6583 47.9652 30.2761 42.4861 34.9012L42.4605 34.8756L30.9292 21.1406C38.0376 15.1854 46.1275 10.5118 54.8373 7.32874V7.35436Z" fill="#F6D049"/>
<path d="M13.1968 42.2812L28.7512 51.25C25.1518 57.4547 22.6793 64.2477 21.4481 71.3144H21.4225L3.76684 68.2138H3.74121C5.35274 59.0833 8.55309 50.3061 13.1968 42.2812Z" fill="#F6D049"/>
<path d="M28.7512 112.75L13.1968 121.719C8.55309 113.694 5.35274 104.917 3.74121 95.7863H3.76684L21.4225 92.6857H21.4481C22.6793 99.7524 25.1518 106.545 28.7512 112.75Z" fill="#F6D049"/>
<path d="M60.9617 139.784L54.8373 156.646V156.671C46.1275 153.488 38.0376 148.815 30.9292 142.859L42.4605 129.124L42.4861 129.099C47.9652 133.724 54.2204 137.342 60.9617 139.784Z" fill="#F6D049"/>
<path d="M109.162 156.646V156.671C100.455 159.829 91.2626 161.442 82 161.438V143.5C89.1768 143.51 96.2988 142.252 103.038 139.784L109.162 156.646Z" fill="#F6D049"/>
<path d="M135.249 112.75L150.803 121.719C146.169 129.745 140.168 136.9 133.071 142.859L121.539 129.124L121.514 129.099C127.016 124.498 131.666 118.964 135.249 112.75Z" fill="#F6D049"/>
<path d="M160.259 68.2137C161.83 77.3374 161.83 86.6626 160.259 95.7862H160.233L142.577 92.6856H142.552C143.816 85.6179 143.816 78.382 142.552 71.3144H142.577L160.233 68.2137H160.259Z" fill="#F6D049"/>
<path d="M109.162 7.32876V7.35438L103.038 24.2156C96.2988 21.7483 89.1768 20.4905 82 20.5V2.56251C91.2626 2.55783 100.455 4.17081 109.162 7.32876Z" fill="#F6D049"/>
<path d="M150.803 42.2812L135.249 51.25C131.666 45.0364 127.016 39.5023 121.514 34.9012L121.539 34.8756L133.071 21.1406C140.168 27.1005 146.169 34.255 150.803 42.2812Z" fill="#F6D049"/>
<path d="M81.9999 2.56251V20.5C74.8232 20.4905 67.7011 21.7483 60.9618 24.2156L54.8374 7.35438V7.32876C63.5451 4.17081 72.7373 2.55783 81.9999 2.56251Z" fill="#FAAB09"/>
<path d="M42.4605 34.8756L42.4862 34.9012C36.9836 39.5023 32.3343 45.0364 28.7512 51.25L13.1968 42.2812C17.8307 34.255 23.8318 27.1005 30.9293 21.1406L42.4605 34.8756Z" fill="#FAAB09"/>
<path d="M21.4225 71.3144H21.4481C20.184 78.382 20.184 85.6179 21.4481 92.6856H21.4225L3.76689 95.7862H3.74126C2.16958 86.6626 2.16958 77.3374 3.74126 68.2137H3.76689L21.4225 71.3144Z" fill="#FAAB09"/>
<path d="M28.7512 112.75C32.3343 118.964 36.9836 124.498 42.4862 129.099L42.4605 129.124L30.9293 142.859C23.8318 136.9 17.8307 129.745 13.1968 121.719L28.7512 112.75Z" fill="#FAAB09"/>
<path d="M81.9999 143.5V161.437C72.7373 161.442 63.5451 159.829 54.8374 156.671V156.646L60.9618 139.784C67.7011 142.252 74.8232 143.509 81.9999 143.5Z" fill="#FAAB09"/>
<path d="M121.539 129.124L133.071 142.859C125.962 148.815 117.872 153.488 109.162 156.671V156.646L103.038 139.784C109.779 137.342 116.035 133.724 121.514 129.099L121.539 129.124Z" fill="#FAAB09"/>
<path d="M160.233 95.7863H160.259C158.647 104.917 155.447 113.694 150.803 121.719L135.249 112.75C138.848 106.545 141.32 99.7524 142.552 92.6857H142.577L160.233 95.7863Z" fill="#FAAB09"/>
<path d="M160.259 68.2138H160.233L142.577 71.3144H142.552C141.32 64.2477 138.848 57.4547 135.249 51.25L150.803 42.2812C155.447 50.3061 158.647 59.0833 160.259 68.2138Z" fill="#FAAB09"/>
<path d="M133.071 21.1406L121.539 34.8756L121.514 34.9012C116.035 30.2761 109.779 26.6583 103.038 24.2156L109.162 7.35436V7.32874C117.872 10.5118 125.962 15.1854 133.071 21.1406Z" fill="#FAAB09"/>
<path d="M82 20.5C69.8365 20.5 57.9461 24.1069 47.8325 30.8646C37.7188 37.6223 29.8362 47.2273 25.1814 58.465C20.5266 69.7026 19.3087 82.0682 21.6817 93.9981C24.0547 105.928 29.912 116.886 38.513 125.487C47.1139 134.088 58.0721 139.945 70.002 142.318C81.9318 144.691 94.2974 143.473 105.535 138.819C116.773 134.164 126.378 126.281 133.135 116.168C139.893 106.054 143.5 94.1636 143.5 82C143.5 65.6892 137.021 50.0464 125.487 38.5129C113.954 26.9794 98.3108 20.5 82 20.5ZM82 135.812C71.3569 135.812 60.9528 132.656 52.1034 126.743C43.254 120.83 36.3567 112.426 32.2838 102.593C28.2108 92.7602 27.1452 81.9403 29.2215 71.5017C31.2979 61.0631 36.423 51.4746 43.9488 43.9488C51.4747 36.423 61.0631 31.2979 71.5017 29.2215C81.9403 27.1451 92.7602 28.2108 102.593 32.2837C112.426 36.3567 120.83 43.254 126.743 52.1034C132.656 60.9528 135.813 71.3569 135.813 82C135.813 96.272 130.143 109.959 120.051 120.051C109.959 130.143 96.272 135.812 82 135.812Z" fill="#5C2E96"/>
<path d="M42.4863 34.9012C47.9654 30.2761 54.2206 26.6583 60.9619 24.2156L59.1938 19.3801C51.8937 22.0445 45.1168 25.9672 39.1704 30.9703L42.4504 34.8756L42.4863 34.9012Z" fill="#FAAB09"/>
<path d="M21.448 71.3144C22.6792 64.2477 25.1518 57.4547 28.7512 51.25L24.3103 48.6875C20.4157 55.4146 17.7379 62.7757 16.3999 70.4329L21.425 71.3144H21.448Z" fill="#FAAB09"/>
<path d="M21.448 92.6857H21.4224L16.3999 93.5672C17.7379 101.224 20.4157 108.585 24.3103 115.313L28.7512 112.75C25.1518 106.545 22.6792 99.7524 21.448 92.6857Z" fill="#FAAB09"/>
<path d="M42.4863 129.099L42.4607 129.124L39.1807 133.03C45.124 138.032 51.8973 141.954 59.1938 144.62L60.9517 139.784C54.214 137.341 47.9623 133.723 42.4863 129.099Z" fill="#FAAB09"/>
<path d="M82 143.5V148.625C89.7779 148.634 97.497 147.279 104.806 144.62L103.038 139.784C96.2988 142.252 89.1768 143.509 82 143.5Z" fill="#FAAB09"/>
<path d="M121.514 129.099L121.539 129.124L124.819 133.03C130.768 128.033 135.8 122.037 139.689 115.313L135.249 112.75C131.666 118.964 127.016 124.498 121.514 129.099Z" fill="#FAAB09"/>
<path d="M142.552 71.3144C143.816 78.382 143.816 85.6179 142.552 92.6856H142.577L147.602 93.5671C148.966 85.9159 148.966 78.084 147.602 70.4329L142.577 71.3144H142.552Z" fill="#FAAB09"/>
<path d="M103.038 24.2157L104.806 19.3802C97.497 16.7212 89.7779 15.3656 82 15.375V20.5C89.1768 20.4905 96.2988 21.7484 103.038 24.2157Z" fill="#FAAB09"/>
<path d="M121.514 34.9012C127.016 39.5023 131.666 45.0364 135.249 51.25L139.689 48.6875C135.802 41.9624 130.773 35.9662 124.827 30.9678L121.539 34.8756L121.514 34.9012Z" fill="#FAAB09"/>
<path d="M82.0001 20.5V15.375C74.2222 15.3656 66.5031 16.7212 59.1938 19.3802L60.962 24.2157C67.7013 21.7484 74.8234 20.4905 82.0001 20.5Z" fill="#F08400"/>
<path d="M42.4864 34.9012L42.4607 34.8756L39.1807 30.9703C33.2324 35.9673 28.2004 41.9627 24.3105 48.6875L28.7514 51.25C32.3345 45.0364 36.9838 39.5023 42.4864 34.9012Z" fill="#F08400"/>
<path d="M21.4485 92.6856C20.1843 85.6179 20.1843 78.382 21.4485 71.3144H21.4228L16.4003 70.4329C15.0371 78.084 15.0371 85.9159 16.4003 93.5671L21.4228 92.6856H21.4485Z" fill="#F08400"/>
<path d="M42.4864 129.099C36.9838 124.498 32.3345 118.964 28.7514 112.75L24.3105 115.313C28.1978 122.038 33.2272 128.034 39.1731 133.032L42.4531 129.127L42.4864 129.099Z" fill="#F08400"/>
<path d="M60.962 139.784L59.1938 144.62C66.5031 147.279 74.2222 148.634 82.0001 148.625V143.5C74.8234 143.509 67.7013 142.252 60.962 139.784Z" fill="#F08400"/>
<path d="M121.514 129.099C116.035 133.724 109.779 137.342 103.038 139.784L104.796 144.62C112.096 141.955 118.873 138.033 124.819 133.03L121.539 129.124L121.514 129.099Z" fill="#F08400"/>
<path d="M142.552 92.6857C141.32 99.7524 138.848 106.545 135.249 112.75L139.689 115.313C143.584 108.585 146.262 101.224 147.6 93.5672L142.577 92.6857H142.552Z" fill="#F08400"/>
<path d="M135.249 51.25C138.848 57.4547 141.32 64.2477 142.552 71.3144H142.577L147.602 70.4329C146.264 62.7756 143.585 55.4144 139.689 48.6875L135.249 51.25Z" fill="#F08400"/>
<path d="M121.514 34.9012L121.539 34.8756L124.819 30.9703C118.876 25.9683 112.103 22.0456 104.806 19.3801L103.038 24.2156C109.779 26.6583 116.035 30.2761 121.514 34.9012Z" fill="#F08400"/>
<path d="M56.5798 12.1514L54.8373 7.35436V7.32874C46.1275 10.5118 38.0376 15.1854 30.9292 21.1406L34.24 25.0817C40.8747 19.5006 48.4355 15.1244 56.5798 12.1514Z" fill="#FFF382"/>
<path d="M8.82521 69.1029C10.3192 60.5609 13.3066 52.349 17.6505 44.8437L13.1968 42.2812C8.55309 50.3061 5.35274 59.0832 3.74121 68.2137H3.76684L8.82521 69.1029Z" fill="#FFF382"/>
<path d="M8.82521 94.8971L3.76684 95.7863H3.74121C5.35274 104.917 8.55309 113.694 13.1968 121.719L17.6505 119.156C13.3066 111.651 10.3192 103.439 8.82521 94.8971Z" fill="#FFF382"/>
<path d="M56.5798 151.849C48.4355 148.876 40.8747 144.499 34.24 138.918L30.9292 142.859C38.0376 148.815 46.1275 153.488 54.8373 156.671V156.646L56.5798 151.849Z" fill="#FFF382"/>
<path d="M107.42 151.849C99.2724 154.81 90.669 156.321 82 156.313V161.438C91.2626 161.442 100.455 159.829 109.162 156.671V156.646L107.42 151.849Z" fill="#FFF382"/>
<path d="M129.76 138.918L133.071 142.859C140.168 136.9 146.169 129.745 150.803 121.719L146.349 119.156C142.009 126.657 136.395 133.344 129.76 138.918Z" fill="#FFF382"/>
<path d="M160.259 68.2137H160.233L155.175 69.1029C156.692 77.6341 156.692 86.3659 155.175 94.8971L160.233 95.7862H160.259C161.83 86.6626 161.83 77.3374 160.259 68.2137Z" fill="#FFF382"/>
<path d="M107.42 12.1514L109.162 7.35438V7.32876C100.455 4.17081 91.2626 2.55783 82 2.56251V7.68751C90.669 7.6793 99.2724 9.1901 107.42 12.1514Z" fill="#FFF382"/>
<path d="M146.349 44.8438L150.803 42.2812C146.169 34.255 140.168 27.1005 133.071 21.1406L129.76 25.0818C136.395 30.6559 142.009 37.3432 146.349 44.8438Z" fill="#FFF382"/>
<path d="M56.5799 12.1514C64.7275 9.1901 73.3309 7.6793 81.9999 7.68751V2.56251C72.7373 2.55783 63.5451 4.17081 54.8374 7.32876V7.35438L56.5799 12.1514Z" fill="#F6D049"/>
<path d="M34.24 25.0818L30.9293 21.1406C23.8318 27.1005 17.8307 34.255 13.1968 42.2812L17.6504 44.8438C21.991 37.3432 27.6047 30.6559 34.24 25.0818Z" fill="#F6D049"/>
<path d="M8.82526 94.8971C7.30826 86.3659 7.30826 77.6341 8.82526 69.1029L3.76689 68.2137H3.74126C2.16958 77.3374 2.16958 86.6626 3.74126 95.7862H3.76689L8.82526 94.8971Z" fill="#F6D049"/>
<path d="M17.6504 119.156L13.1968 121.719C17.8307 129.745 23.8318 136.9 30.9293 142.859L34.24 138.918C27.6047 133.344 21.991 126.657 17.6504 119.156Z" fill="#F6D049"/>
<path d="M56.5799 151.849L54.8374 156.646V156.671C63.5451 159.829 72.7373 161.442 81.9999 161.438V156.313C73.3309 156.321 64.7275 154.81 56.5799 151.849Z" fill="#F6D049"/>
<path d="M107.42 151.849L109.162 156.646V156.671C117.872 153.488 125.962 148.815 133.071 142.859L129.76 138.918C123.125 144.499 115.564 148.876 107.42 151.849Z" fill="#F6D049"/>
<path d="M155.175 94.8971C153.681 103.439 150.693 111.651 146.35 119.156L150.803 121.719C155.447 113.694 158.647 104.917 160.259 95.7863H160.233L155.175 94.8971Z" fill="#F6D049"/>
<path d="M155.175 69.1029L160.233 68.2137H160.259C158.647 59.0832 155.447 50.3061 150.803 42.2812L146.35 44.8437C150.693 52.349 153.681 60.5609 155.175 69.1029Z" fill="#F6D049"/>
<path d="M107.42 12.1514C115.564 15.1244 123.125 19.5006 129.76 25.0817L133.071 21.1406C125.962 15.1854 117.872 10.5118 109.162 7.32874V7.35436L107.42 12.1514Z" fill="#F6D049"/>
<path d="M82 0C65.782 0 49.9281 4.80922 36.4433 13.8195C22.9584 22.8298 12.4483 35.6364 6.24191 50.62C0.035529 65.6035 -1.58834 82.091 1.57564 97.9974C4.73963 113.904 12.5494 128.515 24.0173 139.983C35.4852 151.451 50.0962 159.26 66.0026 162.424C81.9091 165.588 98.3965 163.965 113.38 157.758C128.364 151.552 141.17 141.042 150.181 127.557C159.191 114.072 164 98.2181 164 82C163.976 60.2597 155.329 39.4169 139.956 24.0442C124.583 8.67152 103.74 0.0244166 82 0V0ZM158.875 82C158.873 85.619 158.616 89.2333 158.106 92.8163L145.478 90.5921C146.268 84.8912 146.268 79.1088 145.478 73.4079L158.106 71.1837C158.616 74.7667 158.873 78.381 158.875 82ZM57.705 141.263L53.3205 153.307C46.6053 150.592 40.3076 146.942 34.6143 142.465L42.8476 132.653C47.3919 136.176 52.3891 139.072 57.705 141.263ZM62.5173 143.023C67.9972 144.775 73.689 145.775 79.4375 145.998V158.811C72.1945 158.576 65.0215 157.315 58.1329 155.065L62.5173 143.023ZM84.5625 145.998C90.3085 145.775 95.9977 144.774 101.475 143.023L105.859 155.067C98.9733 157.316 91.8028 158.576 84.5625 158.811V145.998ZM106.295 141.263C111.613 139.071 116.612 136.174 121.158 132.65L129.391 142.475C123.698 146.952 117.4 150.603 110.685 153.317L106.295 141.263ZM82 140.938C70.3433 140.938 58.9483 137.481 49.2561 131.005C39.5639 124.529 32.0097 115.324 27.5489 104.554C23.088 93.785 21.9209 81.9346 24.195 70.5019C26.4691 59.0691 32.0824 48.5675 40.3249 40.3249C48.5675 32.0823 59.0691 26.4691 70.5019 24.195C81.9347 21.9209 93.785 23.088 104.554 27.5488C115.324 32.0097 124.529 39.5639 131.005 49.2561C137.481 58.9483 140.938 70.3433 140.938 82C140.921 97.626 134.706 112.607 123.656 123.656C112.607 134.706 97.626 140.921 82 140.938ZM5.12504 82C5.12756 78.381 5.38444 74.7667 5.89379 71.1837L18.5218 73.4079C17.7325 79.1088 17.7325 84.8912 18.5218 90.5921L5.89379 92.8163C5.38444 89.2333 5.12756 85.619 5.12504 82ZM19.4135 68.3624L6.78041 66.1356C8.27837 59.043 10.7807 52.2005 14.2117 45.8149L25.315 52.2212C22.6276 57.3102 20.6424 62.7401 19.4135 68.3624ZM19.4135 95.6376C20.6397 101.26 22.6223 106.691 25.3073 111.781L14.204 118.188C10.773 111.802 8.27068 104.96 6.77272 97.867L19.4135 95.6376ZM106.295 22.7371L110.68 10.6933C117.395 13.4077 123.692 17.0578 129.386 21.5353L121.152 31.3471C116.608 27.8243 111.611 24.9284 106.295 22.7371ZM101.475 20.9766C95.9977 19.226 90.3085 18.2252 84.5625 18.0016V5.18906C91.8056 5.42364 98.9786 6.685 105.867 8.93544L101.475 20.9766ZM79.4375 18.0016C73.6916 18.2252 68.0024 19.226 62.525 20.9766L58.1406 8.93287C65.0268 6.68403 72.1972 5.42353 79.4375 5.18906V18.0016ZM57.705 22.7371C52.3872 24.9288 47.3882 27.8256 42.8425 31.3496L34.6092 21.525C40.3025 17.0475 46.6002 13.3974 53.3154 10.6831L57.705 22.7371ZM138.698 52.2237L149.801 45.8175C153.228 52.2038 155.726 59.0463 157.22 66.1381L144.587 68.3649C143.362 62.7433 141.381 57.3135 138.698 52.2237ZM144.592 95.6376L157.225 97.8644C155.731 104.956 153.233 111.799 149.806 118.185L138.703 111.779C141.384 106.689 143.363 101.259 144.587 95.6376H144.592ZM147.231 41.3818L136.128 47.7881C133.052 42.9309 129.341 38.5065 125.094 34.6322L133.327 24.8229C138.711 29.6657 143.39 35.2396 147.226 41.3818H147.231ZM30.6783 24.8255L38.9116 34.6348C34.6641 38.5091 30.9532 42.9335 27.8775 47.7906L16.7742 41.3844C20.6118 35.2418 25.2922 29.6679 30.6783 24.8255ZM16.7742 122.618L27.8775 116.212C30.9532 121.069 34.6641 125.493 38.9116 129.368L30.6783 139.177C25.2922 134.335 20.6118 128.761 16.7742 122.618ZM133.322 139.174L125.088 129.365C129.336 125.491 133.047 121.066 136.123 116.209L147.226 122.616C143.388 128.758 138.708 134.332 133.322 139.174Z" fill="black"/>
<path d="M133.25 82C133.25 95.5923 127.85 108.628 118.239 118.239C108.628 127.85 95.5923 133.25 82 133.25C68.4077 133.25 55.372 127.85 45.7608 118.239C36.1495 108.628 30.75 95.5923 30.75 82H25.625C25.625 96.9516 31.5645 111.291 42.1369 121.863C52.7092 132.436 67.0484 138.375 82 138.375C96.9516 138.375 111.291 132.436 121.863 121.863C132.436 111.291 138.375 96.9516 138.375 82H133.25Z" fill="black"/>
<path d="M81.9999 30.75C94.7643 30.6903 107.087 35.4198 116.533 44.0044C125.98 52.5889 131.864 64.4041 133.022 77.1159L138.121 76.6341C136.843 62.6526 130.37 49.6581 119.981 40.215C109.591 30.7718 96.0396 25.5661 81.9999 25.625C69.8702 25.6754 58.0762 29.6138 48.35 36.8618C38.6238 44.1099 31.478 54.2856 27.9619 65.8947L32.8717 67.3553C36.0691 56.802 42.5661 47.5519 51.4086 40.9635C60.251 34.375 70.9729 30.7953 81.9999 30.75Z" fill="black"/>
<path d="M31.6777 72.2342L26.6501 71.2656C26.3118 73.0158 26.0505 74.8224 25.8813 76.6315L30.9807 77.1184C31.1345 75.4707 31.3702 73.8307 31.6777 72.2342Z" fill="black"/>
<path d="M52.5848 76.5624L80.7723 91.9374C81.1488 92.1428 81.5709 92.2505 81.9998 92.2505C82.4287 92.2505 82.8507 92.1428 83.2272 91.9374L111.415 76.5624C111.736 76.3876 112.016 76.1461 112.236 75.8542C112.456 75.5623 112.611 75.2267 112.69 74.8699C112.77 74.5131 112.772 74.1434 112.697 73.7856C112.622 73.4278 112.472 73.0902 112.255 72.7955L84.0677 34.358C83.8181 34.0502 83.5029 33.802 83.1451 33.6315C82.7874 33.461 82.3961 33.3726 81.9998 33.3726C81.6034 33.3726 81.2121 33.461 80.8544 33.6315C80.4966 33.802 80.1814 34.0502 79.9318 34.358L51.7443 72.7955C51.528 73.0902 51.3772 73.4278 51.3022 73.7856C51.2271 74.1434 51.2295 74.5131 51.3091 74.8699C51.3887 75.2267 51.5437 75.5623 51.7637 75.8542C51.9838 76.1461 52.2637 76.3876 52.5848 76.5624ZM79.4373 85.3723L59.1628 74.3125L79.4373 63.2528V85.3723ZM84.5623 63.2528L104.837 74.3125L84.5623 85.3723V63.2528ZM84.5623 57.4154V43.7035L101.324 66.5584L84.5623 57.4154ZM79.4373 57.4154L62.6759 66.5584L79.4373 43.7035V57.4154Z" fill="black"/>
<path d="M51.6601 85.954L79.8476 129.517C80.0799 129.876 80.3986 130.172 80.7746 130.377C81.1506 130.581 81.5719 130.689 82.0001 130.689C82.4282 130.689 82.8495 130.581 83.2255 130.377C83.6016 130.172 83.9203 129.876 84.1526 129.517L112.34 85.954C112.65 85.4754 112.791 84.9072 112.742 84.3392C112.693 83.7712 112.455 83.2359 112.067 82.818C111.679 82.4001 111.163 82.1235 110.6 82.032C110.038 81.9405 109.46 82.0393 108.96 82.3127L82.0001 97.0189L55.04 82.3127C54.5397 82.0393 53.9625 81.9405 53.3997 82.032C52.837 82.1235 52.3208 82.4001 51.9329 82.818C51.545 83.2359 51.3076 83.7712 51.2582 84.3392C51.2088 84.9072 51.3502 85.4754 51.6601 85.954ZM84.5626 119.448V101.46L102.554 91.6479L84.5626 119.448ZM79.4376 101.46V119.448L61.4463 91.6479L79.4376 101.46Z" fill="black"/>
</g>
<defs>
<clipPath id="clip0">
<rect width="164" height="164" fill="white"/>
</clipPath>
</defs>
</svg>
