<svg height="512pt" viewBox="0 0 512 512" width="512pt" xmlns="http://www.w3.org/2000/svg" xmlns:xlink="http://www.w3.org/1999/xlink"><linearGradient id="a" gradientUnits="userSpaceOnUse" x1="0" x2="512" y1="256" y2="256"><stop offset="0" stop-color="#00f38d"/><stop offset="1" stop-color="#009eff"/></linearGradient><path d="m512 256c0 141.386719-114.613281 256-256 256s-256-114.613281-256-256 114.613281-256 256-256 256 114.613281 256 256zm0 0" fill="url(#a)"/><path d="m270.660156 78.058594h-27.804687l-114.289063 203.660156 114.289063 152.222656h27.804687l112.773438-152.222656zm1.097656 63.914062 61.195313 110.519532-61.195313-22.742188zm-30 87.820313-62.710937 23.273437 62.710937-111.75zm0 32v40.039062l-53.941406-20.019531zm30-.039063 53.980469 20.058594-53.980469 20.058594zm-15.066406 140.648438-65.597656-87.375 65.730469 24.398437 64.191406-23.855469zm0 0" fill="#fff"/></svg>