<svg width="300" height="399.99999999999994" xmlns="http://www.w3.org/2000/svg">
 <g>
  <title>Layer 1</title>
  <rect stroke="#ffffff" rx="10" id="svg_38" height="12" width="163.33332" y="44.96877" x="70.90714" stroke-opacity="null" stroke-width="1.5" fill="#ffffff"/>
  <rect stroke="#ffffff" rx="10" id="svg_40" height="12" width="163.33332" y="75.64268" x="70.90714" stroke-opacity="null" stroke-width="1.5" fill="#ffffff"/>
  <rect stroke="#ffffff" rx="10" id="svg_41" height="12" width="163.33332" y="107.32162" x="70.90714" stroke-opacity="null" stroke-width="1.5" fill="#ffffff"/>
  <rect stroke="#ffffff" rx="10" id="svg_42" height="12" width="163.33332" y="138.76822" x="70.90714" stroke-opacity="null" stroke-width="1.5" fill="#ffffff"/>
  <rect stroke="#ffffff" rx="10" id="svg_43" height="12" width="163.33332" y="44.96877" x="70.90714" stroke-opacity="null" stroke-width="1.5" fill="#ffffff"/>
  <rect stroke="#ffffff" rx="10" id="svg_44" height="12" width="163.33332" y="75.64268" x="70.90714" stroke-opacity="null" stroke-width="1.5" fill="#ffffff"/>
  <rect stroke="#ffffff" rx="10" id="svg_45" height="12" width="163.33332" y="107.32162" x="70.90714" stroke-opacity="null" stroke-width="1.5" fill="#ffffff"/>
  <rect stroke="#ffffff" rx="10" id="svg_46" height="12" width="163.33332" y="138.76822" x="70.90714" stroke-opacity="null" stroke-width="1.5" fill="#ffffff"/>
  <rect stroke="#ffffff" rx="10" id="svg_47" height="12" width="163.33332" y="223.63542" x="70.90714" stroke-opacity="null" stroke-width="1.5" fill="#ffffff"/>
  <rect stroke="#ffffff" rx="10" id="svg_48" height="12" width="163.33332" y="254.30933" x="70.90714" stroke-opacity="null" stroke-width="1.5" fill="#ffffff"/>
  <rect stroke="#ffffff" rx="10" id="svg_49" height="12" width="163.33332" y="285.98827" x="70.90714" stroke-opacity="null" stroke-width="1.5" fill="#ffffff"/>
  <rect stroke="#ffffff" rx="10" id="svg_50" height="12" width="163.33332" y="317.43487" x="70.90714" stroke-opacity="null" stroke-width="1.5" fill="#ffffff"/>
  <rect stroke="#ffffff" rx="10" id="svg_51" height="12" width="163.33332" y="223.63542" x="70.90714" stroke-opacity="null" stroke-width="1.5" fill="#ffffff"/>
  <rect stroke="#ffffff" rx="10" id="svg_52" height="12" width="163.33332" y="254.30933" x="70.90714" stroke-opacity="null" stroke-width="1.5" fill="#ffffff"/>
  <rect stroke="#ffffff" rx="10" id="svg_53" height="12" width="163.33332" y="285.98827" x="70.90714" stroke-opacity="null" stroke-width="1.5" fill="#ffffff"/>
  <rect stroke="#ffffff" rx="10" id="svg_54" height="12" width="163.33332" y="317.43487" x="70.90714" stroke-opacity="null" stroke-width="1.5" fill="#ffffff"/>
 </g>
</svg>