<svg width="600" height="399.99999999999994" xmlns="http://www.w3.org/2000/svg">
 <g>
  <title>Layer 1</title>
  <rect fill="#ffffff" stroke-width="1.5" stroke-opacity="null" x="19.57381" y="44.96877" width="163.33332" height="12" id="svg_38" rx="10" stroke="#ffffff"/>
  <rect fill="#ffffff" stroke-width="1.5" stroke-opacity="null" x="19.57381" y="75.64268" width="163.33332" height="12" id="svg_40" rx="10" stroke="#ffffff"/>
  <rect fill="#ffffff" stroke-width="1.5" stroke-opacity="null" x="19.57381" y="107.32162" width="163.33332" height="12" id="svg_41" rx="10" stroke="#ffffff"/>
  <rect fill="#ffffff" stroke-width="1.5" stroke-opacity="null" x="19.57381" y="138.76822" width="163.33332" height="12" id="svg_42" rx="10" stroke="#ffffff"/>
  <rect fill="#ffffff" stroke-width="1.5" stroke-opacity="null" x="19.57381" y="44.96877" width="163.33332" height="12" id="svg_43" rx="10" stroke="#ffffff"/>
  <rect fill="#ffffff" stroke-width="1.5" stroke-opacity="null" x="19.57381" y="75.64268" width="163.33332" height="12" id="svg_44" rx="10" stroke="#ffffff"/>
  <rect fill="#ffffff" stroke-width="1.5" stroke-opacity="null" x="19.57381" y="107.32162" width="163.33332" height="12" id="svg_45" rx="10" stroke="#ffffff"/>
  <rect fill="#ffffff" stroke-width="1.5" stroke-opacity="null" x="19.57381" y="138.76822" width="163.33332" height="12" id="svg_46" rx="10" stroke="#ffffff"/>
  <rect fill="#ffffff" stroke-width="1.5" stroke-opacity="null" x="19.57381" y="223.63542" width="163.33332" height="12" id="svg_47" rx="10" stroke="#ffffff"/>
  <rect fill="#ffffff" stroke-width="1.5" stroke-opacity="null" x="19.57381" y="254.30933" width="163.33332" height="12" id="svg_48" rx="10" stroke="#ffffff"/>
  <rect fill="#ffffff" stroke-width="1.5" stroke-opacity="null" x="19.57381" y="285.98827" width="163.33332" height="12" id="svg_49" rx="10" stroke="#ffffff"/>
  <rect fill="#ffffff" stroke-width="1.5" stroke-opacity="null" x="19.57381" y="317.43487" width="163.33332" height="12" id="svg_50" rx="10" stroke="#ffffff"/>
  <rect fill="#ffffff" stroke-width="1.5" stroke-opacity="null" x="19.57381" y="223.63542" width="163.33332" height="12" id="svg_51" rx="10" stroke="#ffffff"/>
  <rect fill="#ffffff" stroke-width="1.5" stroke-opacity="null" x="19.57381" y="254.30933" width="163.33332" height="12" id="svg_52" rx="10" stroke="#ffffff"/>
  <rect fill="#ffffff" stroke-width="1.5" stroke-opacity="null" x="19.57381" y="285.98827" width="163.33332" height="12" id="svg_53" rx="10" stroke="#ffffff"/>
  <rect fill="#ffffff" stroke-width="1.5" stroke-opacity="null" x="19.57381" y="317.43487" width="163.33332" height="12" id="svg_54" rx="10" stroke="#ffffff"/>
  <rect fill="#ffffff" stroke-width="1.5" stroke-opacity="null" x="409.00001" y="47.63543" width="163.33332" height="12" id="svg_55" rx="10" stroke="#ffffff"/>
  <rect fill="#ffffff" stroke-width="1.5" stroke-opacity="null" x="409.00001" y="78.30934" width="163.33332" height="12" id="svg_56" rx="10" stroke="#ffffff"/>
  <rect fill="#ffffff" stroke-width="1.5" stroke-opacity="null" x="409.00001" y="109.98828" width="163.33332" height="12" id="svg_57" rx="10" stroke="#ffffff"/>
  <rect fill="#ffffff" stroke-width="1.5" stroke-opacity="null" x="409.00001" y="141.43488" width="163.33332" height="12" id="svg_58" rx="10" stroke="#ffffff"/>
  <rect fill="#ffffff" stroke-width="1.5" stroke-opacity="null" x="409.00001" y="47.63543" width="163.33332" height="12" id="svg_59" rx="10" stroke="#ffffff"/>
  <rect fill="#ffffff" stroke-width="1.5" stroke-opacity="null" x="409.00001" y="78.30934" width="163.33332" height="12" id="svg_60" rx="10" stroke="#ffffff"/>
  <rect fill="#ffffff" stroke-width="1.5" stroke-opacity="null" x="409.00001" y="109.98828" width="163.33332" height="12" id="svg_61" rx="10" stroke="#ffffff"/>
  <rect fill="#ffffff" stroke-width="1.5" stroke-opacity="null" x="409.00001" y="141.43488" width="163.33332" height="12" id="svg_62" rx="10" stroke="#ffffff"/>
  <rect fill="#ffffff" stroke-width="1.5" stroke-opacity="null" x="408.99999" y="224.96875" width="163.33332" height="12" id="svg_63" rx="10" stroke="#ffffff"/>
  <rect fill="#ffffff" stroke-width="1.5" stroke-opacity="null" x="408.99999" y="255.64265" width="163.33332" height="12" id="svg_64" rx="10" stroke="#ffffff"/>
  <rect fill="#ffffff" stroke-width="1.5" stroke-opacity="null" x="408.99999" y="287.3216" width="163.33332" height="12" id="svg_65" rx="10" stroke="#ffffff"/>
  <rect fill="#ffffff" stroke-width="1.5" stroke-opacity="null" x="408.99999" y="318.7682" width="163.33332" height="12" id="svg_66" rx="10" stroke="#ffffff"/>
  <rect fill="#ffffff" stroke-width="1.5" stroke-opacity="null" x="408.99999" y="224.96875" width="163.33332" height="12" id="svg_67" rx="10" stroke="#ffffff"/>
  <rect fill="#ffffff" stroke-width="1.5" stroke-opacity="null" x="408.99999" y="255.64265" width="163.33332" height="12" id="svg_68" rx="10" stroke="#ffffff"/>
  <rect fill="#ffffff" stroke-width="1.5" stroke-opacity="null" x="408.99999" y="287.3216" width="163.33332" height="12" id="svg_69" rx="10" stroke="#ffffff"/>
  <rect fill="#ffffff" stroke-width="1.5" stroke-opacity="null" x="408.99999" y="318.7682" width="163.33332" height="12" id="svg_70" rx="10" stroke="#ffffff"/>
  <rect fill="#ffffff" stroke-width="1.5" stroke-opacity="null" x="213.00001" y="47.63543" width="163.33332" height="12" id="svg_1" rx="10" stroke="#ffffff"/>
  <rect fill="#ffffff" stroke-width="1.5" stroke-opacity="null" x="213.00001" y="78.30934" width="163.33332" height="12" id="svg_2" rx="10" stroke="#ffffff"/>
  <rect fill="#ffffff" stroke-width="1.5" stroke-opacity="null" x="213.00001" y="109.98828" width="163.33332" height="12" id="svg_3" rx="10" stroke="#ffffff"/>
  <rect fill="#ffffff" stroke-width="1.5" stroke-opacity="null" x="213.00001" y="141.43488" width="163.33332" height="12" id="svg_4" rx="10" stroke="#ffffff"/>
  <rect fill="#ffffff" stroke-width="1.5" stroke-opacity="null" x="213.00001" y="47.63543" width="163.33332" height="12" id="svg_5" rx="10" stroke="#ffffff"/>
  <rect fill="#ffffff" stroke-width="1.5" stroke-opacity="null" x="213.00001" y="78.30934" width="163.33332" height="12" id="svg_6" rx="10" stroke="#ffffff"/>
  <rect fill="#ffffff" stroke-width="1.5" stroke-opacity="null" x="213.00001" y="109.98828" width="163.33332" height="12" id="svg_7" rx="10" stroke="#ffffff"/>
  <rect fill="#ffffff" stroke-width="1.5" stroke-opacity="null" x="213.00001" y="141.43488" width="163.33332" height="12" id="svg_8" rx="10" stroke="#ffffff"/>
  <rect fill="#ffffff" stroke-width="1.5" stroke-opacity="null" x="212.99999" y="224.96875" width="163.33332" height="12" id="svg_9" rx="10" stroke="#ffffff"/>
  <rect fill="#ffffff" stroke-width="1.5" stroke-opacity="null" x="212.99999" y="255.64265" width="163.33332" height="12" id="svg_10" rx="10" stroke="#ffffff"/>
  <rect fill="#ffffff" stroke-width="1.5" stroke-opacity="null" x="212.99999" y="287.3216" width="163.33332" height="12" id="svg_11" rx="10" stroke="#ffffff"/>
  <rect fill="#ffffff" stroke-width="1.5" stroke-opacity="null" x="212.99999" y="318.7682" width="163.33332" height="12" id="svg_12" rx="10" stroke="#ffffff"/>
  <rect fill="#ffffff" stroke-width="1.5" stroke-opacity="null" x="212.99999" y="224.96875" width="163.33332" height="12" id="svg_13" rx="10" stroke="#ffffff"/>
  <rect fill="#ffffff" stroke-width="1.5" stroke-opacity="null" x="212.99999" y="255.64265" width="163.33332" height="12" id="svg_14" rx="10" stroke="#ffffff"/>
  <rect fill="#ffffff" stroke-width="1.5" stroke-opacity="null" x="212.99999" y="287.3216" width="163.33332" height="12" id="svg_15" rx="10" stroke="#ffffff"/>
  <rect fill="#ffffff" stroke-width="1.5" stroke-opacity="null" x="212.99999" y="318.7682" width="163.33332" height="12" id="svg_16" rx="10" stroke="#ffffff"/>
 </g>
</svg>